<svg id="visual" viewBox="0 0 1920 1000" width="1920" height="1000" xmlns="http://www.w3.org/2000/svg" xmlns:xlink="http://www.w3.org/1999/xlink" version="1.1"><path d="M0 683L53.3 695.2C106.7 707.3 213.3 731.7 320 733C426.7 734.3 533.3 712.7 640 702.8C746.7 693 853.3 695 960 701.2C1066.7 707.3 1173.3 717.7 1280 727C1386.7 736.3 1493.3 744.7 1600 742.2C1706.7 739.7 1813.3 726.3 1866.7 719.7L1920 713L1920 1001L1866.7 1001C1813.3 1001 1706.7 1001 1600 1001C1493.3 1001 1386.7 1001 1280 1001C1173.3 1001 1066.7 1001 960 1001C853.3 1001 746.7 1001 640 1001C533.3 1001 426.7 1001 320 1001C213.3 1001 106.7 1001 53.3 1001L0 1001Z" fill="#ec8900" stroke-linecap="round" stroke-linejoin="miter"></path></svg>