<?xml version="1.0" encoding="UTF-8" standalone="no"?>
<svg
   id="visual"
   viewBox="0 0 1920 1020"
   width="1920"
   height="1020"
   version="1.1"
   sodipodi:docname="860cf7659981fe409255dc58e645825e.svg"
   xmlns:inkscape="http://www.inkscape.org/namespaces/inkscape"
   xmlns:sodipodi="http://sodipodi.sourceforge.net/DTD/sodipodi-0.dtd"
   xmlns="http://www.w3.org/2000/svg"
   xmlns:svg="http://www.w3.org/2000/svg">
  <sodipodi:namedview
     id="namedview27"
     pagecolor="#ffffff"
     bordercolor="#666666"
     borderopacity="1.0"
     inkscape:pageshadow="2"
     inkscape:pageopacity="0.0"
     inkscape:pagecheckerboard="0" />
  <rect
     x="0"
     y="0"
     width="1920"
     height="1020"
     fill="#ffffff"
     id="rect2" />
  <defs
     id="defs9">
    <linearGradient
       id="grad1_0"
       x1="43.8%"
       y1="100%"
       x2="100%"
       y2="0%">
      <stop
         offset="14.444444444444446%"
         stop-color="#ffffff"
         stop-opacity="1"
         id="stop4" />
      <stop
         offset="85.55555555555554%"
         stop-color="#ffffff"
         stop-opacity="1"
         id="stop6" />
    </linearGradient>
  </defs>
  <defs
     id="defs16">
    <linearGradient
       id="grad2_0"
       x1="0%"
       y1="100%"
       x2="56.3%"
       y2="0%">
      <stop
         offset="14.444444444444446%"
         stop-color="#ffffff"
         stop-opacity="1"
         id="stop11" />
      <stop
         offset="85.55555555555554%"
         stop-color="#ffffff"
         stop-opacity="1"
         id="stop13" />
    </linearGradient>
  </defs>
  <g
     transform="translate(1920, 1020)"
     id="g20">
    <path
       d="M-310 0C-304.6 -42.4 -299.2 -84.7 -279 -115.6C-258.8 -146.4 -223.9 -165.8 -198 -198C-172.1 -230.2 -155.1 -275.3 -123.6 -298.4C-92.1 -321.6 -46.1 -322.8 0 -324L0 0Z"
       fill="#ffaa5a"
       id="path18" />
  </g>
  <g
     transform="translate(0, 0)"
     id="g24">
    <path
       d="M316 0C319.1 47.1 322.3 94.1 299.3 124C276.4 153.9 227.4 166.5 195.9 195.9C164.3 225.2 150.3 271.2 120.5 291C90.8 310.8 45.4 304.4 0 298L0 0Z"
       fill="#ffaa5a"
       id="path22" />
  </g>
</svg>
